<svg id="Layer_1" data-name="Layer 1" xmlns="http://www.w3.org/2000/svg" viewBox="0 0 446.85 212.4"><defs><style>.cls-1{fill:#231f20;}</style></defs><path class="cls-1" d="M579.65,333.29a30.23,30.23,0,0,0-9.74-8.79,18.13,18.13,0,0,0-9.42-2.83q-11.62,0-28,19.16a18.72,18.72,0,0,0-1.88,2.05,11.44,11.44,0,0,1-1.26,1.41V323.87H516.5l-36.13,23.25v12.57h3.45q7.86,0,10.37,2c1.68,1.36,2.52,4.14,2.52,8.32v63.78q0,7.25-3.14,9.9c-2.1,1.79-6.19,2.67-12.26,2.67h-7.42c-5.65,0-9.53-.88-11.62-2.67s-3.14-5.07-3.14-9.9v-110H445.3l-34.25,23.25v12.57H412q8.16,0,10.84,2c1.77,1.36,2.67,4.14,2.67,8.32v63.78q0,7.25-3.15,9.9c-2.09,1.79-6.2,2.85-12.27,2.85H410c-10.46.56-22.1-4.19-22.1-12.39V360q0-18.86-10.21-28.91t-29.37-10a61.82,61.82,0,0,0-31.74,8.64c-1.54.9-3.09,1.9-4.65,3a78,78,0,0,0,.57-9.42,72.91,72.91,0,0,0-5.5-28.91,60,60,0,0,0-15.71-21.83,71.18,71.18,0,0,0-25-13.83A106.19,106.19,0,0,0,233,253.8H136.57v21.05h1.89q12.24,0,17.28,3.93t5,14V425.67q0,10.05-5,14t-17.28,3.93h-1.89v19.79h88.6V443.58h-1.88q-14.14,0-19.48-3.93t-5.34-14V392.05h38.64a89.68,89.68,0,0,0,30.8-5,69.7,69.7,0,0,0,23.72-14.14,65.43,65.43,0,0,0,5.29-5.51l2-2.26c7.33-8.38,14.29-13.91,20.06-17.05a36.63,36.63,0,0,1,17.75-4.71q17.6,0,17.6,18.54V379c0,2.2-33.27,12.52-38.29,14.3-8.14,2.88-17,6.83-24.31,11.79-15.23,10.37-18.84,36.58-6.3,50.88,6.55,7.47,16.18,10.26,25.85,10.26A51.3,51.3,0,0,0,332,461.49q10.67-4.73,23.56-14.77,4.71,19.48,22.94,19.48c4.51,0,9.65-.49,20.18-1.57,7.43-.76,15.15-1.15,18.76-1.26H547.29v-17h-2.2c-6.07,0-10.21-.88-12.41-2.67s-3.3-5.07-3.3-9.9V367.54l1-1.57q10-16.65,18.54-16.65c5.25,0,6.71,5,9.56,8.5,3.88,4.82,11.44,4.74,14.31,3.47,6-2.68,10.69-9.41,10.69-17.31A18.45,18.45,0,0,0,579.65,333.29ZM260.21,358.11Q249.05,371,228.63,371H198.47V274.85h27.65q21.67,0,33.46,12.26T271.36,322Q271.36,345.25,260.21,358.11Zm94.1,72.58a49.81,49.81,0,0,1-13.52,9.12,34.1,34.1,0,0,1-14.14,3.45,13.73,13.73,0,0,1-9.48-3.67c-2.31-2.31-3.66-6.75-3.72-10.31-.17-10,3.53-14.61,9.12-19.37,6.25-5.31,14.56-7.59,27.34-11.15l4.4-1.26Z" transform="translate(-136.57 -253.8)"/><path class="cls-1" d="M423.54,298.88a24.56,24.56,0,0,0,33.76,0,23,23,0,0,0,0-32.82,24.56,24.56,0,0,0-33.76,0,22.56,22.56,0,0,0,0,32.82Z" transform="translate(-136.57 -253.8)"/></svg>